<?xml version="1.0" encoding="UTF-8"?>
<svg xmlns="http://www.w3.org/2000/svg" viewBox="0 0 1200 600" width="1200" height="600" preserveAspectRatio="xMidYMid slice">
  <defs>
    <linearGradient id="g1" x1="0" x2="1" y1="0" y2="1">
      <stop offset="0%" stop-color="#7B61FF" stop-opacity="0.95"/>
      <stop offset="50%" stop-color="#9A86FF" stop-opacity="0.6"/>
      <stop offset="100%" stop-color="#B7A5FF" stop-opacity="0.3"/>
    </linearGradient>
    <filter id="f1" x="-50%" y="-50%" width="200%" height="200%">
      <feGaussianBlur stdDeviation="24" result="b" />
      <feBlend in="SourceGraphic" in2="b" mode="screen" />
    </filter>
  </defs>

  <rect width="1200" height="600" fill="#06060A" />

  <g filter="url(#f1)">
    <path d="M280 120 C 420 40, 520 40, 680 120 C 860 200, 880 360, 700 420 C 520 480, 360 460, 260 380 C 160 300, 140 200, 280 120 Z" fill="url(#g1)" opacity="0.85"/>
    <path d="M820 80 C 920 10, 1020 20, 1140 100 C 1180 140, 1180 220, 1100 300 C 980 420, 820 420, 740 360 C 680 320, 740 220, 820 80 Z" fill="#8A6CFF" opacity="0.45"/>
    <ellipse cx="520" cy="360" rx="260" ry="120" fill="#6E54FF" opacity="0.22"/>
  </g>

  <g opacity="0.9">
    <path d="M420 100 C 500 80, 600 90, 700 150 C 760 190, 760 240, 700 270 C 640 300, 540 290, 480 250 C 420 210, 380 120, 420 100 Z" fill="#FFFFFF" opacity="0.06"/>
    <path d="M300 260 C 340 240, 380 230, 460 250 C 540 270, 560 300, 520 320 C 480 340, 420 330, 360 300 C 320 280, 300 270, 300 260 Z" fill="#FFFFFF" opacity="0.03"/>
  </g>

  <g fill="#B7A5FF" opacity="0.06">
    <circle cx="1100" cy="60" r="3"/>
    <circle cx="960" cy="150" r="2"/>
    <circle cx="760" cy="40" r="2.5"/>
    <circle cx="200" cy="520" r="2"/>
    <circle cx="980" cy="520" r="3"/>
  </g>

  <g transform="translate(600,320)" text-anchor="middle" font-family="Instrument Serif, serif">
    <text x="0" y="0" fill="#FFFFFF" opacity="0.9" font-size="48">Pact - Design Reference</text>
  </g>
</svg>
